<svg width="296" height="294" viewBox="0 0 296 294" fill="none" xmlns="http://www.w3.org/2000/svg">
<path d="M2 293L35 1H294L260 293H2Z" fill="url(#paint0_linear_111_688)" fill-opacity="0.8" stroke="#4B4B4B" stroke-width="2"/>
<path d="M48.9844 263.543C48.334 263.543 47.7393 263.499 47.2002 263.411C46.667 263.329 46.1514 263.183 45.6533 262.972C45.1611 262.755 44.7451 262.477 44.4053 262.137C44.0654 261.797 43.793 261.354 43.5879 260.81C43.3887 260.265 43.2891 259.635 43.2891 258.92C43.2891 258.604 43.3828 258.445 43.5703 258.445H47.5781C47.7598 258.445 47.8945 258.489 47.9824 258.577C48.0703 258.665 48.123 258.773 48.1406 258.902C48.1582 259.031 48.1729 259.16 48.1846 259.289C48.2021 259.418 48.2461 259.526 48.3164 259.614C48.3926 259.702 48.5098 259.746 48.668 259.746C48.8145 259.746 48.9316 259.708 49.0195 259.632C49.1133 259.55 49.1777 259.43 49.2129 259.271C49.2539 259.113 49.2773 258.976 49.2832 258.858C49.2949 258.741 49.3008 258.592 49.3008 258.41V258.34C49.2949 257.918 49.2773 257.104 49.248 255.896C49.2246 254.689 49.2129 253.746 49.2129 253.066V250.078C49.2129 249.908 49.3359 249.809 49.582 249.779C49.7695 249.779 50.0508 249.782 50.4258 249.788C50.8008 249.794 51.082 249.797 51.2695 249.797C51.5508 249.797 51.9668 249.794 52.5176 249.788C53.0684 249.782 53.4844 249.779 53.7656 249.779H54.5918C54.7266 249.779 54.8203 249.861 54.873 250.025C54.8613 250.131 54.8555 250.274 54.8555 250.456C54.8613 250.638 54.8613 250.781 54.8555 250.887V251.326C54.7969 253.125 54.7676 254.73 54.7676 256.143V258.902C54.7676 259.418 54.6973 259.896 54.5566 260.335C54.416 260.774 54.2285 261.149 53.9941 261.46C53.7598 261.771 53.4785 262.052 53.1504 262.304C52.8281 262.55 52.4941 262.749 52.1484 262.901C51.8027 263.054 51.4365 263.18 51.0498 263.279C50.6689 263.379 50.3086 263.446 49.9688 263.481C49.6348 263.522 49.3066 263.543 48.9844 263.543ZM55.8223 256.688L55.8047 256.494C55.916 255.539 56.0215 254.874 56.1211 254.499C56.3496 253.62 56.7598 252.885 57.3516 252.293L57.5625 252.082C57.8438 251.754 58.2715 251.473 58.8457 251.238H59.1797C59.7539 250.998 60.6973 250.775 62.0098 250.57C62.3379 250.57 62.6807 250.597 63.0381 250.649C63.4014 250.696 63.8027 250.778 64.2422 250.896C64.6816 251.007 65.1035 251.188 65.5078 251.44C65.918 251.687 66.2578 251.982 66.5273 252.328V252.574C67.4883 253.775 67.9688 255.123 67.9688 256.617C67.9688 258.299 67.582 259.67 66.8086 260.73L66.457 261.17C66.1875 261.504 65.8506 261.791 65.4463 262.031C65.0479 262.271 64.623 262.456 64.1719 262.585C63.7207 262.708 63.2871 262.796 62.8711 262.849C62.4609 262.901 62.0508 262.928 61.6406 262.928C61.0371 262.928 60.46 262.857 59.9092 262.717C59.3643 262.57 58.8516 262.345 58.3711 262.04C57.8965 261.735 57.4775 261.36 57.1143 260.915C56.751 260.47 56.4551 259.934 56.2266 259.307C56.0039 258.674 55.8691 257.977 55.8223 257.215V256.688ZM60.6562 256.758C60.6562 258.82 61.0488 259.852 61.834 259.852C62.0508 259.852 62.2383 259.811 62.3965 259.729C62.5605 259.646 62.6924 259.521 62.792 259.351C62.8916 259.181 62.9736 259.008 63.0381 258.832C63.1025 258.656 63.1465 258.437 63.1699 258.173C63.1992 257.909 63.2168 257.678 63.2227 257.479C63.2344 257.279 63.2402 257.039 63.2402 256.758V256.441C63.2402 256.137 63.2227 255.844 63.1875 255.562C63.1523 255.281 63.0908 255 63.0029 254.719C62.9209 254.432 62.792 254.203 62.6162 254.033C62.4404 253.857 62.2266 253.77 61.9746 253.77C61.0957 253.77 60.6562 254.637 60.6562 256.371V256.758ZM69.0586 262.717V251.168C69.0645 251.121 69.1113 251.08 69.1992 251.045C69.2871 251.004 69.3398 250.975 69.3574 250.957H74.0859V262.4C74.0566 262.523 74.0273 262.608 73.998 262.655C73.9746 262.696 73.9336 262.717 73.875 262.717H69.0586ZM87.4102 250.957C87.4805 250.98 87.5332 251.083 87.5684 251.265C87.6094 251.44 87.6328 251.663 87.6387 251.933C87.6445 252.202 87.6445 252.46 87.6387 252.706C87.6328 252.952 87.624 253.204 87.6123 253.462C87.6064 253.72 87.6035 253.881 87.6035 253.945C87.5918 254.18 87.5859 254.508 87.5859 254.93V255.861C87.5859 256.271 87.5918 256.834 87.6035 257.549C87.6152 258.264 87.6211 258.791 87.6211 259.131V262.33C87.5977 262.529 87.4336 262.629 87.1289 262.629H82.207C82.1016 262.605 81.9668 262.359 81.8027 261.891C81.6914 261.58 81.5039 261.07 81.2402 260.361C80.9824 259.652 80.7598 259.031 80.5723 258.498C80.3848 257.959 80.2148 257.438 80.0625 256.934V256.881V256.934C80.0449 257.32 80.0273 257.897 80.0098 258.665C79.9922 259.427 79.9746 259.998 79.957 260.379V262.172C79.957 262.348 79.9365 262.471 79.8955 262.541C79.8545 262.605 79.7461 262.658 79.5703 262.699H75.9492L75.5625 262.312C75.5918 261.34 75.6152 259.816 75.6328 257.742C75.6504 255.668 75.6738 254.133 75.7031 253.137V251.238C75.7617 251.027 75.832 250.922 75.9141 250.922V250.957C76.3125 250.957 76.9365 250.945 77.7861 250.922C78.6416 250.898 79.2832 250.887 79.7109 250.887H81.1875C81.1934 250.887 81.2021 250.89 81.2139 250.896C81.3193 250.937 81.3779 250.983 81.3896 251.036L81.3984 251.098C81.6094 251.666 81.8232 252.255 82.04 252.864C82.2568 253.474 82.5146 254.212 82.8135 255.079C83.1123 255.94 83.3203 256.535 83.4375 256.863V255.562C83.5547 253.5 83.6133 252.035 83.6133 251.168C83.6133 251.074 83.6777 251.016 83.8066 250.992C83.9355 250.969 84.1348 250.957 84.4043 250.957H87.4102ZM94.3535 256.477C94.3535 255.668 94.4443 254.927 94.626 254.253C94.8076 253.579 95.0479 253.008 95.3467 252.539C95.6514 252.07 96.0146 251.654 96.4365 251.291C96.8643 250.928 97.3037 250.638 97.7549 250.421C98.2061 250.198 98.6895 250.017 99.2051 249.876C99.7266 249.735 100.213 249.642 100.664 249.595C101.115 249.542 101.572 249.516 102.035 249.516C102.375 249.516 102.706 249.53 103.028 249.56C103.356 249.589 103.723 249.642 104.127 249.718C104.537 249.788 104.918 249.899 105.27 250.052C105.627 250.204 105.967 250.392 106.289 250.614C106.617 250.831 106.901 251.115 107.142 251.467C107.382 251.812 107.555 252.205 107.66 252.645C107.689 252.814 107.748 253.295 107.836 254.086C107.812 254.262 107.625 254.35 107.273 254.35C106.77 254.35 106.037 254.338 105.076 254.314C104.115 254.291 103.395 254.279 102.914 254.279C102.844 254.256 102.788 254.209 102.747 254.139C102.706 254.068 102.677 253.992 102.659 253.91C102.647 253.828 102.624 253.74 102.589 253.646C102.56 253.553 102.519 253.471 102.466 253.4C102.419 253.324 102.331 253.263 102.202 253.216C102.079 253.163 101.924 253.137 101.736 253.137C101.49 253.137 101.271 253.181 101.077 253.269C100.884 253.351 100.726 253.453 100.603 253.576C100.479 253.699 100.374 253.866 100.286 254.077C100.198 254.288 100.131 254.481 100.084 254.657C100.043 254.827 100.011 255.047 99.9873 255.316C99.9639 255.58 99.9492 255.788 99.9434 255.94C99.9434 256.093 99.9434 256.295 99.9434 256.547C99.9434 256.623 99.9463 256.717 99.9521 256.828C99.958 256.939 99.9609 257.016 99.9609 257.057V257.32C99.9609 257.508 99.9639 257.663 99.9697 257.786C99.9756 257.909 99.9902 258.067 100.014 258.261C100.043 258.454 100.081 258.618 100.128 258.753C100.175 258.882 100.242 259.022 100.33 259.175C100.424 259.321 100.535 259.441 100.664 259.535C100.799 259.623 100.966 259.699 101.165 259.764C101.364 259.822 101.59 259.852 101.842 259.852C102.492 259.852 103.025 259.787 103.441 259.658V258.586H103.055V258.604H102.422C102.375 258.604 102.29 258.606 102.167 258.612C102.05 258.618 101.953 258.621 101.877 258.621L101.561 258.27V255.844C101.561 255.691 101.666 255.527 101.877 255.352H102.51C102.949 255.352 103.482 255.357 104.109 255.369C104.736 255.381 105.217 255.387 105.551 255.387H106.254C106.594 255.387 106.857 255.39 107.045 255.396C107.238 255.401 107.452 255.431 107.687 255.483C107.921 255.53 108.076 255.604 108.152 255.703C108.152 256.471 108.135 257.59 108.1 259.061C108.064 260.531 108.047 261.598 108.047 262.26C108.047 262.277 108.05 262.307 108.056 262.348C108.062 262.383 108.064 262.412 108.064 262.436V262.629C107.865 262.863 107.215 263.068 106.113 263.244C105.012 263.42 104.086 263.508 103.336 263.508H103.107C102.943 263.508 102.7 263.52 102.378 263.543C102.056 263.566 101.812 263.578 101.648 263.578C99.2871 263.578 97.4795 262.948 96.2256 261.688C94.9775 260.423 94.3535 258.686 94.3535 256.477ZM113.602 260.871C113.561 261.006 113.52 261.185 113.479 261.407C113.443 261.624 113.408 261.797 113.373 261.926C113.344 262.049 113.291 262.181 113.215 262.321C113.139 262.456 113.021 262.556 112.863 262.62C112.711 262.685 112.512 262.717 112.266 262.717H108.469V262.418C108.779 261.486 109.23 260.057 109.822 258.129C110.42 256.201 110.883 254.742 111.211 253.752V253.77C111.41 253.201 111.703 252.311 112.09 251.098C112.096 251.086 112.104 251.071 112.116 251.054C112.169 250.966 112.219 250.898 112.266 250.852L117.012 250.887C117.82 250.887 118.266 250.957 118.348 251.098V251.326C118.359 251.379 118.424 251.514 118.541 251.73C119.109 253.471 119.525 254.736 119.789 255.527V255.633C119.812 255.803 119.865 255.996 119.947 256.213C120.029 256.43 120.126 256.664 120.237 256.916C120.354 257.162 120.437 257.355 120.483 257.496L120.835 258.762C121.04 259.441 121.342 260.35 121.74 261.486V261.469V261.645C121.758 261.727 121.802 261.838 121.872 261.979C121.942 262.119 121.986 262.219 122.004 262.277C122.004 262.441 121.969 262.547 121.898 262.594C121.834 262.641 121.705 262.664 121.512 262.664H117.434C117.334 262.652 117.27 262.644 117.24 262.638C117.211 262.632 117.164 262.62 117.1 262.603C117.041 262.585 116.997 262.562 116.968 262.532C116.944 262.503 116.93 262.465 116.924 262.418L116.59 261.082C116.566 260.971 116.543 260.909 116.52 260.897C116.496 260.88 116.426 260.871 116.309 260.871H113.602ZM114.023 257.742V257.777V257.742ZM115.957 256.688C115.922 256.523 115.869 256.26 115.799 255.896C115.734 255.527 115.67 255.208 115.605 254.938C115.541 254.663 115.471 254.408 115.395 254.174V253.752C115.348 253.629 115.266 253.541 115.148 253.488V253.506C115.008 253.535 114.867 253.928 114.727 254.684V255.105C114.715 255.146 114.688 255.185 114.647 255.22C114.606 255.255 114.586 255.275 114.586 255.281C114.393 256.137 114.234 256.828 114.111 257.355C114.111 257.414 114.097 257.517 114.067 257.663C114.038 257.81 114.023 257.895 114.023 257.918H116.203C116.203 257.766 116.15 257.49 116.045 257.092V256.898C116.039 256.881 116.021 256.849 115.992 256.802C115.969 256.749 115.957 256.711 115.957 256.688ZM128.982 250.992C129.023 250.98 129.088 250.972 129.176 250.966C129.27 250.954 129.328 250.945 129.352 250.939L130.397 256.292L131.769 250.922H137.947C138.111 250.922 138.193 251.268 138.193 251.959V262.312C138.182 262.406 138.155 262.482 138.114 262.541C138.073 262.6 138.012 262.641 137.93 262.664C137.854 262.682 137.792 262.693 137.745 262.699C137.704 262.699 137.631 262.699 137.525 262.699C137.156 262.699 136.594 262.705 135.838 262.717C135.088 262.729 134.525 262.734 134.15 262.734C133.857 262.553 133.711 261.879 133.711 260.713C133.711 260.42 133.717 260.039 133.729 259.57C133.74 259.096 133.746 258.744 133.746 258.516V257.742C133.746 257.701 133.743 257.637 133.737 257.549C133.731 257.455 133.729 257.385 133.729 257.338C133.729 257.139 133.74 256.816 133.764 256.371V257.039C133.682 257.385 133.523 257.912 133.289 258.621C133.055 259.33 132.896 259.857 132.814 260.203L132.287 262.453C132.193 262.617 131.9 262.699 131.408 262.699C131.168 262.699 130.854 262.693 130.468 262.682C130.087 262.67 129.797 262.664 129.598 262.664C129.539 262.664 129.439 262.667 129.299 262.673C129.158 262.679 129.07 262.682 129.035 262.682C128.848 262.682 128.713 262.658 128.631 262.611C128.549 262.564 128.49 262.471 128.455 262.33C127.904 259.887 127.523 258.158 127.312 257.145L126.996 255.633C126.914 257.338 126.873 259.143 126.873 261.047V262.594H122.725C122.725 262.559 122.733 262.482 122.751 262.365C122.769 262.248 122.777 262.184 122.777 262.172C122.73 261.047 122.707 259.658 122.707 258.006C122.707 257.508 122.704 256.846 122.698 256.02C122.692 255.188 122.689 254.613 122.689 254.297V251.186C122.689 251.109 122.701 251.054 122.725 251.019C122.748 250.978 122.807 250.922 122.9 250.852H123.709C124.002 250.852 124.213 250.846 124.342 250.834C124.934 250.834 125.651 250.86 126.495 250.913C127.345 250.966 127.875 250.992 128.086 250.992H128.982ZM133.764 256.318V256.301V256.318ZM139.846 251.695C139.846 251.344 139.86 251.139 139.89 251.08C139.942 250.998 140.027 250.957 140.145 250.957H140.355C140.449 250.957 140.514 250.963 140.549 250.975H141.006C141.598 250.975 142.491 250.96 143.687 250.931C144.888 250.901 145.787 250.887 146.385 250.887H148.723C148.875 250.904 148.951 250.98 148.951 251.115V254.051C148.945 254.086 148.934 254.118 148.916 254.147C148.904 254.171 148.893 254.188 148.881 254.2C148.875 254.206 148.849 254.227 148.802 254.262C148.755 254.291 148.723 254.314 148.705 254.332H144.627V255.422H145.014C145.354 255.422 145.872 255.41 146.569 255.387C147.267 255.363 147.803 255.352 148.178 255.352C148.342 255.352 148.453 255.384 148.512 255.448C148.57 255.513 148.6 255.604 148.6 255.721C148.6 255.75 148.594 255.8 148.582 255.87C148.57 255.94 148.564 255.99 148.564 256.02V256.354C148.564 256.377 148.567 256.427 148.573 256.503C148.579 256.573 148.582 256.635 148.582 256.688V256.934C148.582 257.062 148.588 257.191 148.6 257.32C148.611 257.449 148.617 257.561 148.617 257.654V257.883C148.588 257.953 148.564 258 148.547 258.023C148.529 258.047 148.5 258.059 148.459 258.059V258.041C148.242 258.041 147.867 258.056 147.334 258.085C146.807 258.114 146.385 258.129 146.068 258.129H144.662V259.254C144.709 259.254 144.779 259.257 144.873 259.263C144.967 259.269 145.037 259.271 145.084 259.271C145.348 259.271 145.737 259.263 146.253 259.245C146.769 259.228 147.141 259.219 147.369 259.219H148.494C148.799 259.219 148.992 259.254 149.074 259.324C149.104 259.359 149.127 259.395 149.145 259.43V262.242C149.145 262.365 149.121 262.459 149.074 262.523C149.027 262.588 148.939 262.623 148.811 262.629H140.109L139.846 262.4V251.695Z" fill="#F3F5FF"/>
<defs>
<linearGradient id="paint0_linear_111_688" x1="294.253" y1="0.999853" x2="-3.13035" y2="48.6165" gradientUnits="userSpaceOnUse">
<stop/>
<stop offset="1" stop-color="#549FA5"/>
</linearGradient>
</defs>
</svg>
