<svg width="296" height="294" viewBox="0 0 296 294" fill="none" xmlns="http://www.w3.org/2000/svg">
<path d="M2 293L35 1H294L260 293H2Z" fill="url(#paint0_linear_111_581)" fill-opacity="0.8" stroke="#4B4B4B" stroke-width="2"/>
<path d="M56.9297 258.34C56.8301 259.219 56.5986 259.998 56.2354 260.678C55.8721 261.352 55.4062 261.902 54.8379 262.33C54.2695 262.752 53.6221 263.071 52.8955 263.288C52.1748 263.505 51.3867 263.613 50.5312 263.613C49.7344 263.613 49.0078 263.525 48.3516 263.35C47.6953 263.18 47.1416 262.951 46.6904 262.664C46.2393 262.377 45.8408 262.028 45.4951 261.618C45.1494 261.202 44.874 260.777 44.6689 260.344C44.4639 259.904 44.2969 259.427 44.168 258.911C44.0449 258.39 43.96 257.906 43.9131 257.461C43.8721 257.01 43.8516 256.541 43.8516 256.055V255.281C43.9102 254.426 44.1094 253.658 44.4492 252.979C44.7891 252.293 45.2021 251.742 45.6885 251.326C46.1748 250.904 46.7314 250.556 47.3584 250.28C47.9854 249.999 48.5947 249.806 49.1865 249.7C49.7783 249.589 50.3672 249.533 50.9531 249.533C51.8965 249.533 52.7285 249.647 53.4492 249.876C54.1758 250.099 54.7676 250.415 55.2246 250.825C55.6816 251.235 56.0391 251.707 56.2969 252.24C56.5547 252.768 56.7188 253.359 56.7891 254.016V254.859C56.7891 255.047 56.1445 255.141 54.8555 255.141C54.5508 255.141 54.126 255.135 53.5811 255.123C53.042 255.111 52.6875 255.105 52.5176 255.105C52.4883 255.105 52.4443 255.108 52.3857 255.114C52.3271 255.12 52.2832 255.123 52.2539 255.123C52.1016 255.123 51.9844 255.062 51.9023 254.938C51.8262 254.81 51.7734 254.654 51.7441 254.473C51.7207 254.291 51.6885 254.109 51.6475 253.928C51.6123 253.746 51.5332 253.594 51.4102 253.471C51.293 253.342 51.1289 253.277 50.918 253.277C50.707 253.277 50.5225 253.312 50.3643 253.383C50.2061 253.453 50.0801 253.564 49.9863 253.717C49.8926 253.863 49.8135 254.013 49.749 254.165C49.6904 254.317 49.6465 254.517 49.6172 254.763C49.5938 255.003 49.5762 255.208 49.5645 255.378C49.5586 255.542 49.5527 255.765 49.5469 256.046C49.541 256.321 49.5352 256.523 49.5293 256.652C49.5293 256.723 49.5234 256.852 49.5117 257.039C49.5 257.227 49.4941 257.379 49.4941 257.496C49.4941 258.955 49.8809 259.705 50.6543 259.746C50.8652 259.746 51.0381 259.67 51.1729 259.518C51.3076 259.365 51.3984 259.195 51.4453 259.008C51.498 258.82 51.5566 258.624 51.6211 258.419C51.6855 258.208 51.7559 258.064 51.832 257.988H56.6133C56.8066 258.006 56.9121 258.123 56.9297 258.34ZM57.9844 250.957H59.6191C60.123 250.957 60.9287 250.945 62.0361 250.922C63.1436 250.898 63.9727 250.887 64.5234 250.887C64.998 250.887 65.4404 250.913 65.8506 250.966C66.2666 251.019 66.6738 251.115 67.0723 251.256C67.4766 251.396 67.8193 251.575 68.1006 251.792C68.3877 252.009 68.6191 252.296 68.7949 252.653C68.9707 253.005 69.0586 253.412 69.0586 253.875C69.0586 254.514 68.9092 255.059 68.6104 255.51C68.3115 255.961 67.8516 256.342 67.2305 256.652C67.4766 256.758 67.6904 256.896 67.8721 257.065C68.0537 257.235 68.1914 257.382 68.2852 257.505C68.3848 257.628 68.4785 257.836 68.5664 258.129C68.6602 258.416 68.7158 258.606 68.7334 258.7C68.751 258.788 68.7891 259.011 68.8477 259.368C68.8652 259.45 68.877 259.512 68.8828 259.553C68.9062 259.787 69.0059 260.218 69.1816 260.845C69.3574 261.466 69.4453 261.943 69.4453 262.277C69.4453 262.488 69.3809 262.594 69.252 262.594C68.9004 262.594 68.3672 262.597 67.6523 262.603C66.9434 262.608 66.416 262.611 66.0703 262.611C65.9297 262.6 65.7188 262.594 65.4375 262.594H64.8398C64.7227 262.559 64.6084 262.377 64.4971 262.049C64.3857 261.721 64.3066 261.352 64.2598 260.941L64.0664 259.377C64.0312 259.248 64.002 259.157 63.9785 259.104C63.9609 259.046 63.9258 258.979 63.873 258.902C63.8203 258.82 63.7471 258.765 63.6533 258.735C63.5654 258.706 63.4512 258.691 63.3105 258.691H62.9062V262.207C62.9062 262.225 62.9062 262.254 62.9062 262.295C62.9062 262.33 62.9062 262.356 62.9062 262.374C62.9062 262.386 62.9062 262.406 62.9062 262.436C62.9062 262.465 62.9033 262.488 62.8975 262.506C62.8916 262.518 62.8857 262.535 62.8799 262.559C62.874 262.582 62.8652 262.6 62.8535 262.611C62.8477 262.617 62.8359 262.629 62.8184 262.646C62.8066 262.658 62.7891 262.667 62.7656 262.673C62.748 262.679 62.7246 262.685 62.6953 262.69C62.6719 262.696 62.6426 262.699 62.6074 262.699H57.9844V250.957ZM62.959 255.598C62.9707 255.609 62.9883 255.636 63.0117 255.677C63.0352 255.712 63.0586 255.741 63.082 255.765C63.1055 255.788 63.1289 255.803 63.1523 255.809C63.3281 255.809 63.5039 255.791 63.6797 255.756C63.8555 255.715 64.0342 255.65 64.2158 255.562C64.4033 255.475 64.5527 255.34 64.6641 255.158C64.7812 254.977 64.8398 254.76 64.8398 254.508C64.8398 253.898 64.2539 253.594 63.082 253.594C62.9648 253.623 62.9062 253.67 62.9062 253.734V254.068C62.9062 254.238 62.915 254.493 62.9326 254.833C62.9502 255.173 62.959 255.428 62.959 255.598ZM70.2363 251.695C70.2363 251.344 70.251 251.139 70.2803 251.08C70.333 250.998 70.418 250.957 70.5352 250.957H70.7461C70.8398 250.957 70.9043 250.963 70.9395 250.975H71.3965C71.9883 250.975 72.8818 250.96 74.0771 250.931C75.2783 250.901 76.1777 250.887 76.7754 250.887H79.1133C79.2656 250.904 79.3418 250.98 79.3418 251.115V254.051C79.3359 254.086 79.3242 254.118 79.3066 254.147C79.2949 254.171 79.2832 254.188 79.2715 254.2C79.2656 254.206 79.2393 254.227 79.1924 254.262C79.1455 254.291 79.1133 254.314 79.0957 254.332H75.0176V255.422H75.4043C75.7441 255.422 76.2627 255.41 76.96 255.387C77.6572 255.363 78.1934 255.352 78.5684 255.352C78.7324 255.352 78.8438 255.384 78.9023 255.448C78.9609 255.513 78.9902 255.604 78.9902 255.721C78.9902 255.75 78.9844 255.8 78.9727 255.87C78.9609 255.94 78.9551 255.99 78.9551 256.02V256.354C78.9551 256.377 78.958 256.427 78.9639 256.503C78.9697 256.573 78.9727 256.635 78.9727 256.688V256.934C78.9727 257.062 78.9785 257.191 78.9902 257.32C79.002 257.449 79.0078 257.561 79.0078 257.654V257.883C78.9785 257.953 78.9551 258 78.9375 258.023C78.9199 258.047 78.8906 258.059 78.8496 258.059V258.041C78.6328 258.041 78.2578 258.056 77.7246 258.085C77.1973 258.114 76.7754 258.129 76.459 258.129H75.0527V259.254C75.0996 259.254 75.1699 259.257 75.2637 259.263C75.3574 259.269 75.4277 259.271 75.4746 259.271C75.7383 259.271 76.1279 259.263 76.6436 259.245C77.1592 259.228 77.5312 259.219 77.7598 259.219H78.8848C79.1895 259.219 79.3828 259.254 79.4648 259.324C79.4941 259.359 79.5176 259.395 79.5352 259.43V262.242C79.5352 262.365 79.5117 262.459 79.4648 262.523C79.418 262.588 79.3301 262.623 79.2012 262.629H70.5L70.2363 262.4V251.695ZM84.5977 260.871C84.5566 261.006 84.5156 261.185 84.4746 261.407C84.4395 261.624 84.4043 261.797 84.3691 261.926C84.3398 262.049 84.2871 262.181 84.2109 262.321C84.1348 262.456 84.0176 262.556 83.8594 262.62C83.707 262.685 83.5078 262.717 83.2617 262.717H79.4648V262.418C79.7754 261.486 80.2266 260.057 80.8184 258.129C81.416 256.201 81.8789 254.742 82.207 253.752V253.77C82.4062 253.201 82.6992 252.311 83.0859 251.098C83.0918 251.086 83.1006 251.071 83.1123 251.054C83.165 250.966 83.2148 250.898 83.2617 250.852L88.0078 250.887C88.8164 250.887 89.2617 250.957 89.3438 251.098V251.326C89.3555 251.379 89.4199 251.514 89.5371 251.73C90.1055 253.471 90.5215 254.736 90.7852 255.527V255.633C90.8086 255.803 90.8613 255.996 90.9434 256.213C91.0254 256.43 91.1221 256.664 91.2334 256.916C91.3506 257.162 91.4326 257.355 91.4795 257.496L91.8311 258.762C92.0361 259.441 92.3379 260.35 92.7363 261.486V261.469V261.645C92.7539 261.727 92.7979 261.838 92.8682 261.979C92.9385 262.119 92.9824 262.219 93 262.277C93 262.441 92.9648 262.547 92.8945 262.594C92.8301 262.641 92.7012 262.664 92.5078 262.664H88.4297C88.3301 262.652 88.2656 262.644 88.2363 262.638C88.207 262.632 88.1602 262.62 88.0957 262.603C88.0371 262.585 87.9932 262.562 87.9639 262.532C87.9404 262.503 87.9258 262.465 87.9199 262.418L87.5859 261.082C87.5625 260.971 87.5391 260.909 87.5156 260.897C87.4922 260.88 87.4219 260.871 87.3047 260.871H84.5977ZM85.0195 257.742V257.777V257.742ZM86.9531 256.688C86.918 256.523 86.8652 256.26 86.7949 255.896C86.7305 255.527 86.666 255.208 86.6016 254.938C86.5371 254.663 86.4668 254.408 86.3906 254.174V253.752C86.3438 253.629 86.2617 253.541 86.1445 253.488V253.506C86.0039 253.535 85.8633 253.928 85.7227 254.684V255.105C85.7109 255.146 85.6846 255.185 85.6436 255.22C85.6025 255.255 85.582 255.275 85.582 255.281C85.3887 256.137 85.2305 256.828 85.1074 257.355C85.1074 257.414 85.0928 257.517 85.0635 257.663C85.0342 257.81 85.0195 257.895 85.0195 257.918H87.1992C87.1992 257.766 87.1465 257.49 87.041 257.092V256.898C87.0352 256.881 87.0176 256.849 86.9883 256.802C86.9648 256.749 86.9531 256.711 86.9531 256.688ZM92.666 254.156V250.992H102.896C102.99 251.01 103.049 251.048 103.072 251.106C103.096 251.159 103.107 251.238 103.107 251.344V254.156C103.096 254.297 103.014 254.367 102.861 254.367H100.365V262.453C100.365 262.459 100.362 262.474 100.356 262.497C100.351 262.521 100.348 262.535 100.348 262.541C100.348 262.547 100.345 262.559 100.339 262.576C100.333 262.594 100.327 262.605 100.321 262.611C100.315 262.617 100.31 262.629 100.304 262.646C100.298 262.658 100.289 262.667 100.277 262.673C100.271 262.673 100.26 262.679 100.242 262.69C100.23 262.696 100.216 262.702 100.198 262.708C100.187 262.714 100.169 262.72 100.146 262.726C100.128 262.726 100.107 262.729 100.084 262.734H99.5215C98.7715 262.734 98.3965 262.711 98.3965 262.664C98.3496 262.664 98.2793 262.667 98.1855 262.673C98.0918 262.679 98.0215 262.682 97.9746 262.682H97.2715C97.1367 262.682 96.9434 262.685 96.6914 262.69C96.4453 262.696 96.252 262.699 96.1113 262.699H95.6191L95.2676 262.453V260.555C95.2734 260.215 95.2969 259.488 95.3379 258.375C95.3848 257.262 95.4082 256.383 95.4082 255.738V255.51C95.4082 255.463 95.4111 255.39 95.417 255.29C95.4229 255.19 95.4258 255.117 95.4258 255.07C95.4258 255.018 95.4229 254.912 95.417 254.754C95.4111 254.59 95.4082 254.484 95.4082 254.438H93.2109C93.082 254.438 92.959 254.417 92.8418 254.376C92.7246 254.329 92.666 254.256 92.666 254.156ZM103.775 251.695C103.775 251.344 103.79 251.139 103.819 251.08C103.872 250.998 103.957 250.957 104.074 250.957H104.285C104.379 250.957 104.443 250.963 104.479 250.975H104.936C105.527 250.975 106.421 250.96 107.616 250.931C108.817 250.901 109.717 250.887 110.314 250.887H112.652C112.805 250.904 112.881 250.98 112.881 251.115V254.051C112.875 254.086 112.863 254.118 112.846 254.147C112.834 254.171 112.822 254.188 112.811 254.2C112.805 254.206 112.778 254.227 112.731 254.262C112.685 254.291 112.652 254.314 112.635 254.332H108.557V255.422H108.943C109.283 255.422 109.802 255.41 110.499 255.387C111.196 255.363 111.732 255.352 112.107 255.352C112.271 255.352 112.383 255.384 112.441 255.448C112.5 255.513 112.529 255.604 112.529 255.721C112.529 255.75 112.523 255.8 112.512 255.87C112.5 255.94 112.494 255.99 112.494 256.02V256.354C112.494 256.377 112.497 256.427 112.503 256.503C112.509 256.573 112.512 256.635 112.512 256.688V256.934C112.512 257.062 112.518 257.191 112.529 257.32C112.541 257.449 112.547 257.561 112.547 257.654V257.883C112.518 257.953 112.494 258 112.477 258.023C112.459 258.047 112.43 258.059 112.389 258.059V258.041C112.172 258.041 111.797 258.056 111.264 258.085C110.736 258.114 110.314 258.129 109.998 258.129H108.592V259.254C108.639 259.254 108.709 259.257 108.803 259.263C108.896 259.269 108.967 259.271 109.014 259.271C109.277 259.271 109.667 259.263 110.183 259.245C110.698 259.228 111.07 259.219 111.299 259.219H112.424C112.729 259.219 112.922 259.254 113.004 259.324C113.033 259.359 113.057 259.395 113.074 259.43V262.242C113.074 262.365 113.051 262.459 113.004 262.523C112.957 262.588 112.869 262.623 112.74 262.629H104.039L103.775 262.4V251.695ZM131.18 261.891C131.133 262.107 130.734 262.304 129.984 262.479C129.24 262.649 128.496 262.77 127.752 262.84C127.014 262.91 126.428 262.945 125.994 262.945C125.537 262.945 125.139 262.934 124.799 262.91C124.465 262.887 124.063 262.837 123.595 262.761C123.132 262.679 122.687 262.544 122.259 262.356C121.831 262.163 121.43 261.92 121.055 261.627L120.686 261.311C120.586 261.24 120.486 261.135 120.387 260.994L120.105 260.625C119.402 259.518 119.051 258.229 119.051 256.758C119.051 255.299 119.42 254.057 120.158 253.031L120.404 252.732V252.609V252.627C121.459 251.279 123.199 250.605 125.625 250.605C125.977 250.605 126.357 250.638 126.768 250.702C127.184 250.761 127.623 250.857 128.086 250.992C128.555 251.121 128.997 251.314 129.413 251.572C129.829 251.83 130.16 252.129 130.406 252.469C130.529 252.633 130.623 252.817 130.688 253.022C130.752 253.222 130.811 253.482 130.863 253.805C130.922 254.121 130.969 254.355 131.004 254.508C131.004 254.707 130.816 254.807 130.441 254.807H129.721C129.557 254.807 129.22 254.798 128.71 254.78C128.206 254.763 127.805 254.754 127.506 254.754H126.539C126.457 254.725 126.381 254.634 126.311 254.481C126.246 254.323 126.205 254.232 126.188 254.209V254.227C126.082 253.992 125.848 253.875 125.484 253.875C125.244 253.875 125.033 253.928 124.852 254.033C124.676 254.133 124.541 254.259 124.447 254.411C124.354 254.558 124.277 254.745 124.219 254.974C124.166 255.196 124.131 255.401 124.113 255.589C124.102 255.776 124.096 255.99 124.096 256.23C124.096 256.312 124.099 256.427 124.104 256.573C124.11 256.72 124.113 256.816 124.113 256.863V257.531C124.113 257.742 124.119 257.927 124.131 258.085C124.148 258.243 124.187 258.422 124.245 258.621C124.304 258.82 124.386 258.984 124.491 259.113C124.597 259.242 124.749 259.351 124.948 259.438C125.147 259.526 125.385 259.57 125.66 259.57C126.234 259.57 126.686 259.518 127.014 259.412V259.025C127.014 258.979 127.011 258.917 127.005 258.841C126.999 258.765 126.996 258.703 126.996 258.656C126.996 258.645 126.999 258.615 127.005 258.568C127.011 258.521 127.014 258.48 127.014 258.445H126.68C126.633 258.445 126.574 258.448 126.504 258.454C126.434 258.46 126.387 258.463 126.363 258.463H125.625L125.326 258.129C125.314 258.07 125.309 257.982 125.309 257.865V257.32C125.309 257.25 125.312 257.142 125.317 256.995C125.323 256.849 125.326 256.729 125.326 256.635V256.389C125.326 256.377 125.329 256.351 125.335 256.31C125.341 256.269 125.344 256.23 125.344 256.195V256.125C125.344 256.02 125.364 255.935 125.405 255.87C125.446 255.806 125.525 255.738 125.643 255.668H126.469C126.527 255.668 126.615 255.68 126.732 255.703H127.523C128.109 255.727 128.543 255.738 128.824 255.738H129.668C130.559 255.738 131.086 255.82 131.25 255.984C131.25 256.547 131.238 257.402 131.215 258.551C131.191 259.699 131.18 260.555 131.18 261.117V261.891ZM136.752 260.871C136.711 261.006 136.67 261.185 136.629 261.407C136.594 261.624 136.559 261.797 136.523 261.926C136.494 262.049 136.441 262.181 136.365 262.321C136.289 262.456 136.172 262.556 136.014 262.62C135.861 262.685 135.662 262.717 135.416 262.717H131.619V262.418C131.93 261.486 132.381 260.057 132.973 258.129C133.57 256.201 134.033 254.742 134.361 253.752V253.77C134.561 253.201 134.854 252.311 135.24 251.098C135.246 251.086 135.255 251.071 135.267 251.054C135.319 250.966 135.369 250.898 135.416 250.852L140.162 250.887C140.971 250.887 141.416 250.957 141.498 251.098V251.326C141.51 251.379 141.574 251.514 141.691 251.73C142.26 253.471 142.676 254.736 142.939 255.527V255.633C142.963 255.803 143.016 255.996 143.098 256.213C143.18 256.43 143.276 256.664 143.388 256.916C143.505 257.162 143.587 257.355 143.634 257.496L143.985 258.762C144.19 259.441 144.492 260.35 144.891 261.486V261.469V261.645C144.908 261.727 144.952 261.838 145.022 261.979C145.093 262.119 145.137 262.219 145.154 262.277C145.154 262.441 145.119 262.547 145.049 262.594C144.984 262.641 144.855 262.664 144.662 262.664H140.584C140.484 262.652 140.42 262.644 140.391 262.638C140.361 262.632 140.314 262.62 140.25 262.603C140.191 262.585 140.147 262.562 140.118 262.532C140.095 262.503 140.08 262.465 140.074 262.418L139.74 261.082C139.717 260.971 139.693 260.909 139.67 260.897C139.646 260.88 139.576 260.871 139.459 260.871H136.752ZM137.174 257.742V257.777V257.742ZM139.107 256.688C139.072 256.523 139.02 256.26 138.949 255.896C138.885 255.527 138.82 255.208 138.756 254.938C138.691 254.663 138.621 254.408 138.545 254.174V253.752C138.498 253.629 138.416 253.541 138.299 253.488V253.506C138.158 253.535 138.018 253.928 137.877 254.684V255.105C137.865 255.146 137.839 255.185 137.798 255.22C137.757 255.255 137.736 255.275 137.736 255.281C137.543 256.137 137.385 256.828 137.262 257.355C137.262 257.414 137.247 257.517 137.218 257.663C137.188 257.81 137.174 257.895 137.174 257.918H139.354C139.354 257.766 139.301 257.49 139.195 257.092V256.898C139.189 256.881 139.172 256.849 139.143 256.802C139.119 256.749 139.107 256.711 139.107 256.688ZM152.133 250.992C152.174 250.98 152.238 250.972 152.326 250.966C152.42 250.954 152.479 250.945 152.502 250.939L153.548 256.292L154.919 250.922H161.098C161.262 250.922 161.344 251.268 161.344 251.959V262.312C161.332 262.406 161.306 262.482 161.265 262.541C161.224 262.6 161.162 262.641 161.08 262.664C161.004 262.682 160.942 262.693 160.896 262.699C160.854 262.699 160.781 262.699 160.676 262.699C160.307 262.699 159.744 262.705 158.988 262.717C158.238 262.729 157.676 262.734 157.301 262.734C157.008 262.553 156.861 261.879 156.861 260.713C156.861 260.42 156.867 260.039 156.879 259.57C156.891 259.096 156.896 258.744 156.896 258.516V257.742C156.896 257.701 156.894 257.637 156.888 257.549C156.882 257.455 156.879 257.385 156.879 257.338C156.879 257.139 156.891 256.816 156.914 256.371V257.039C156.832 257.385 156.674 257.912 156.439 258.621C156.205 259.33 156.047 259.857 155.965 260.203L155.438 262.453C155.344 262.617 155.051 262.699 154.559 262.699C154.318 262.699 154.005 262.693 153.618 262.682C153.237 262.67 152.947 262.664 152.748 262.664C152.689 262.664 152.59 262.667 152.449 262.673C152.309 262.679 152.221 262.682 152.186 262.682C151.998 262.682 151.863 262.658 151.781 262.611C151.699 262.564 151.641 262.471 151.605 262.33C151.055 259.887 150.674 258.158 150.463 257.145L150.146 255.633C150.064 257.338 150.023 259.143 150.023 261.047V262.594H145.875C145.875 262.559 145.884 262.482 145.901 262.365C145.919 262.248 145.928 262.184 145.928 262.172C145.881 261.047 145.857 259.658 145.857 258.006C145.857 257.508 145.854 256.846 145.849 256.02C145.843 255.188 145.84 254.613 145.84 254.297V251.186C145.84 251.109 145.852 251.054 145.875 251.019C145.898 250.978 145.957 250.922 146.051 250.852H146.859C147.152 250.852 147.363 250.846 147.492 250.834C148.084 250.834 148.802 250.86 149.646 250.913C150.495 250.966 151.025 250.992 151.236 250.992H152.133ZM156.914 256.318V256.301V256.318ZM162.996 251.695C162.996 251.344 163.011 251.139 163.04 251.08C163.093 250.998 163.178 250.957 163.295 250.957H163.506C163.6 250.957 163.664 250.963 163.699 250.975H164.156C164.748 250.975 165.642 250.96 166.837 250.931C168.038 250.901 168.938 250.887 169.535 250.887H171.873C172.025 250.904 172.102 250.98 172.102 251.115V254.051C172.096 254.086 172.084 254.118 172.066 254.147C172.055 254.171 172.043 254.188 172.031 254.2C172.025 254.206 171.999 254.227 171.952 254.262C171.905 254.291 171.873 254.314 171.855 254.332H167.777V255.422H168.164C168.504 255.422 169.022 255.41 169.72 255.387C170.417 255.363 170.953 255.352 171.328 255.352C171.492 255.352 171.604 255.384 171.662 255.448C171.721 255.513 171.75 255.604 171.75 255.721C171.75 255.75 171.744 255.8 171.732 255.87C171.721 255.94 171.715 255.99 171.715 256.02V256.354C171.715 256.377 171.718 256.427 171.724 256.503C171.729 256.573 171.732 256.635 171.732 256.688V256.934C171.732 257.062 171.738 257.191 171.75 257.32C171.762 257.449 171.768 257.561 171.768 257.654V257.883C171.738 257.953 171.715 258 171.697 258.023C171.68 258.047 171.65 258.059 171.609 258.059V258.041C171.393 258.041 171.018 258.056 170.484 258.085C169.957 258.114 169.535 258.129 169.219 258.129H167.812V259.254C167.859 259.254 167.93 259.257 168.023 259.263C168.117 259.269 168.188 259.271 168.234 259.271C168.498 259.271 168.888 259.263 169.403 259.245C169.919 259.228 170.291 259.219 170.52 259.219H171.645C171.949 259.219 172.143 259.254 172.225 259.324C172.254 259.359 172.277 259.395 172.295 259.43V262.242C172.295 262.365 172.271 262.459 172.225 262.523C172.178 262.588 172.09 262.623 171.961 262.629H163.26L162.996 262.4V251.695Z" fill="#F3F5FF"/>
<defs>
<linearGradient id="paint0_linear_111_581" x1="294.253" y1="0.999853" x2="-3.13035" y2="48.6165" gradientUnits="userSpaceOnUse">
<stop/>
<stop offset="1" stop-color="#EB655F"/>
</linearGradient>
</defs>
</svg>
