<svg width="598" height="133" viewBox="0 0 598 133" fill="none" xmlns="http://www.w3.org/2000/svg">
<path d="M111.758 49.7932C133.83 35.8989 154.344 8.50102 59.8222 10.0641C-58.3306 12.018 65.9895 69.9834 102.344 65.0987C138.699 60.2139 40.3469 128.274 27.3631 96.6866C16.976 71.4162 25.4155 65.0987 30.9336 65.0987M111.758 99.943C112.948 84.312 119.808 52.3985 137.725 49.7932C155.643 47.188 166.398 58.9113 169.536 65.0987C171.05 79.4272 170.12 108.67 154.28 111.015M350.501 32.7954C344.867 42.6063 339.803 58.3837 337.739 74.1527M343.684 116.487C336.682 106.811 335.601 90.4863 337.739 74.1527M337.739 74.1527C347.619 62.3208 370.496 38.6571 382.96 38.6571M337.739 74.1527L384.908 108.02M393.672 93.0403C381.208 76.8882 394.754 52.6599 403.085 42.5648C413.148 48.318 433.013 92.2588 431.974 112.579C430.936 132.9 456.319 60.1499 446.906 32.7954M513.772 34.7493C498.437 37.6423 482.573 50.6348 472.87 65.0987M491.7 111.015C457.646 111.015 458.544 86.4533 472.87 65.0987M472.87 65.0987C472.655 68.1167 479.041 74.1527 506.307 74.1527M504.035 59.5627C510.827 49.0853 528.26 45.5247 547.53 47.8597M592 63.732C578.876 55.1452 562.639 49.6904 547.53 47.8597M547.53 47.8597C548.612 68.5645 543.895 112.579 516.369 123M189.826 90.1095C181.062 77.4092 182.295 61.3074 189.826 49.7932C199.239 35.4006 228.453 33.4467 237.217 38.6571C245.981 43.8674 252.148 81.5786 231.699 89.1326C231.699 89.1326 198.59 102.81 189.826 90.1095ZM262.535 105.415C253.771 92.7146 255.005 76.6128 262.535 65.0987C271.949 50.706 301.162 48.7521 309.926 53.9625C318.691 59.1729 324.858 96.884 304.408 104.438C304.408 104.438 271.3 118.115 262.535 105.415Z" stroke="url(#paint0_linear_2_40)" stroke-width="20"/>
<defs>
<linearGradient id="paint0_linear_2_40" x1="300.838" y1="10" x2="300.838" y2="123.326" gradientUnits="userSpaceOnUse">
<stop stop-color="#FEDB31"/>
<stop offset="1" stop-color="#FF7C00"/>
</linearGradient>
</defs>
</svg>
